<?xml version="1.0" encoding="UTF-8" standalone="no"?>
<!-- Created with Inkscape (http://www.inkscape.org/) -->

<svg
   version="1.1"
   id="svg1"
   width="2557.6267"
   height="1792.3733"
   viewBox="0 0 2557.6267 1792.3733"
   sodipodi:docname="cloudinary_logo_stacked.eps"
   xmlns:inkscape="http://www.inkscape.org/namespaces/inkscape"
   xmlns:sodipodi="http://sodipodi.sourceforge.net/DTD/sodipodi-0.dtd"
   xmlns="http://www.w3.org/2000/svg"
   xmlns:svg="http://www.w3.org/2000/svg">
  <defs
     id="defs1" />
  <sodipodi:namedview
     id="namedview1"
     pagecolor="#ffffff"
     bordercolor="#000000"
     borderopacity="0.25"
     inkscape:showpageshadow="2"
     inkscape:pageopacity="0.0"
     inkscape:pagecheckerboard="0"
     inkscape:deskcolor="#d1d1d1">
    <inkscape:page
       x="0"
       y="0"
       inkscape:label="1"
       id="page1"
       width="2557.6267"
       height="1792.3733"
       margin="0"
       bleed="0" />
  </sodipodi:namedview>
  <g
     id="g1"
     inkscape:groupmode="layer"
     inkscape:label="1">
    <g
       id="group-R5">
      <path
         id="path2"
         d="m 10630.7,3966.42 c -166.6,0 -297.2,-127.93 -297.2,-291.3 0,-160.56 133.4,-291.12 297.2,-291.12 164.4,0 293.1,127.85 293.1,291.12 0,166.09 -126,291.3 -293.1,291.3"
         style="fill:#424ca8;fill-opacity:1;fill-rule:nonzero;stroke:none"
         transform="matrix(0.13333333,0,0,-0.13333333,0,1792.3733)" />
      <path
         id="path3"
         d="m 10630.7,3966.42 c -166.6,0 -297.2,-127.93 -297.2,-291.3 0,-160.56 133.4,-291.12 297.2,-291.12 164.4,0 293.1,127.85 293.1,291.12 0,166.09 -126,291.3 -293.1,291.3 z"
         style="fill:none;stroke:#424ca8;stroke-width:46.1844;stroke-linecap:butt;stroke-linejoin:miter;stroke-miterlimit:10;stroke-dasharray:none;stroke-opacity:1"
         transform="matrix(0.13333333,0,0,-0.13333333,0,1792.3733)" />
      <path
         id="path4"
         d="m 1436.52,3478.03 c 276.42,0 528.08,-124.43 708.67,-350.23 12.7,-15.9 35.84,-18.6 51.71,-5.8 l 298.03,238.1 c 15.78,12.5 18.49,35.5 6.06,51.4 -262.59,336.31 -655.01,529.25 -1076.68,529.25 C 645.309,3940.75 11.5469,3269.4 11.5469,2444.1 11.5469,1618.9 645.309,947.602 1424.31,947.602 c 424.38,0 816.85,192.698 1076.77,528.998 12.39,16 9.54,38.9 -6.33,51.4 l -298.17,234.8 c -15.82,12.6 -38.65,9.9 -51.35,-5.7 -181.63,-223.6 -433.33,-346.7 -708.71,-346.7 -532.008,0 -948.704,454.1 -948.704,1033.7 0,579.8 416.696,1033.93 948.704,1033.93"
         style="fill:#424ca8;fill-opacity:1;fill-rule:nonzero;stroke:none"
         transform="matrix(0.13333333,0,0,-0.13333333,0,1792.3733)" />
      <path
         id="path5"
         d="m 1436.52,3478.03 c 276.42,0 528.08,-124.43 708.67,-350.23 12.7,-15.9 35.84,-18.6 51.71,-5.8 l 298.03,238.1 c 15.78,12.5 18.49,35.5 6.06,51.4 -262.59,336.31 -655.01,529.25 -1076.68,529.25 C 645.309,3940.75 11.5469,3269.4 11.5469,2444.1 11.5469,1618.9 645.309,947.602 1424.31,947.602 c 424.38,0 816.85,192.698 1076.77,528.998 12.39,16 9.54,38.9 -6.33,51.4 l -298.17,234.8 c -15.82,12.6 -38.65,9.9 -51.35,-5.7 -181.63,-223.6 -433.33,-346.7 -708.71,-346.7 -532.008,0 -948.704,454.1 -948.704,1033.7 0,579.8 416.696,1033.93 948.704,1033.93 z"
         style="fill:none;stroke:#424ca8;stroke-width:23.0922;stroke-linecap:butt;stroke-linejoin:miter;stroke-miterlimit:10;stroke-dasharray:none;stroke-opacity:1"
         transform="matrix(0.13333333,0,0,-0.13333333,0,1792.3733)" />
      <path
         id="path6"
         d="m 3260.1,4026.18 h -374.06 c -20.34,0 -36.84,-16.45 -36.84,-36.79 V 1022.9 c 0,-20.3 16.5,-36.798 36.84,-36.798 h 374.06 c 20.35,0 36.85,16.498 36.85,36.798 v 2966.49 c 0,20.34 -16.5,36.79 -36.85,36.79"
         style="fill:#424ca8;fill-opacity:1;fill-rule:nonzero;stroke:none"
         transform="matrix(0.13333333,0,0,-0.13333333,0,1792.3733)" />
      <path
         id="path7"
         d="m 3260.1,4026.18 h -374.06 c -20.34,0 -36.84,-16.45 -36.84,-36.79 V 1022.9 c 0,-20.3 16.5,-36.798 36.84,-36.798 h 374.06 c 20.35,0 36.85,16.498 36.85,36.798 v 2966.49 c 0,20.34 -16.5,36.79 -36.85,36.79 z"
         style="fill:none;stroke:#424ca8;stroke-width:23.0922;stroke-linecap:butt;stroke-linejoin:miter;stroke-miterlimit:10;stroke-dasharray:none;stroke-opacity:1"
         transform="matrix(0.13333333,0,0,-0.13333333,0,1792.3733)" />
      <path
         id="path8"
         d="m 5121.48,1978.2 c 0,-340.8 -236.33,-597.8 -549.77,-597.8 -311.1,0 -545.66,257 -545.66,597.8 0,333.6 234.56,585.2 545.66,585.2 313.44,0 549.77,-251.6 549.77,-585.2 z m -549.77,1022.1 c -495.71,0 -997.53,-351 -997.53,-1022.1 0,-590 428.86,-1034.899 997.53,-1034.899 570.97,0 1001.59,444.899 1001.59,1034.899 0,582.7 -430.62,1022.1 -1001.59,1022.1"
         style="fill:#424ca8;fill-opacity:1;fill-rule:nonzero;stroke:none"
         transform="matrix(0.13333333,0,0,-0.13333333,0,1792.3733)" />
      <path
         id="path9"
         d="m 5121.48,1978.2 c 0,-340.8 -236.33,-597.8 -549.77,-597.8 -311.1,0 -545.66,257 -545.66,597.8 0,333.6 234.56,585.2 545.66,585.2 313.44,0 549.77,-251.6 549.77,-585.2 z m -549.77,1022.1 c -495.71,0 -997.53,-351 -997.53,-1022.1 0,-590 428.86,-1034.899 997.53,-1034.899 570.97,0 1001.59,444.899 1001.59,1034.899 0,582.7 -430.62,1022.1 -1001.59,1022.1 z"
         style="fill:none;stroke:#424ca8;stroke-width:23.0922;stroke-linecap:butt;stroke-linejoin:miter;stroke-miterlimit:10;stroke-dasharray:none;stroke-opacity:1"
         transform="matrix(0.13333333,0,0,-0.13333333,0,1792.3733)" />
      <path
         id="path10"
         d="m 7589.04,2957.6 h -374.15 c -20.34,0 -36.84,-16.4 -36.84,-36.8 V 1927 c 0,-387.7 -267.61,-525.3 -496.75,-525.3 -202.65,0 -407.16,153.2 -407.16,495.4 v 1023.7 c 0,20.4 -16.5,36.8 -36.84,36.8 h -374.11 c -20.34,0 -36.84,-16.4 -36.84,-36.8 V 1850 c 0,-587.4 266.03,-910.898 749.08,-910.898 175.71,0 459.91,100.498 566.63,323.098 l 35.99,-6.9 v -232.4 c 0,-20.3 16.5,-36.798 36.84,-36.798 h 374.15 c 20.35,0 36.85,16.498 36.85,36.798 v 1897.9 c 0,20.4 -16.5,36.8 -36.85,36.8"
         style="fill:#424ca8;fill-opacity:1;fill-rule:nonzero;stroke:none"
         transform="matrix(0.13333333,0,0,-0.13333333,0,1792.3733)" />
      <path
         id="path11"
         d="m 7589.04,2957.6 h -374.15 c -20.34,0 -36.84,-16.4 -36.84,-36.8 V 1927 c 0,-387.7 -267.61,-525.3 -496.75,-525.3 -202.65,0 -407.16,153.2 -407.16,495.4 v 1023.7 c 0,20.4 -16.5,36.8 -36.84,36.8 h -374.11 c -20.34,0 -36.84,-16.4 -36.84,-36.8 V 1850 c 0,-587.4 266.03,-910.898 749.08,-910.898 175.71,0 459.91,100.498 566.63,323.098 l 35.99,-6.9 v -232.4 c 0,-20.3 16.5,-36.798 36.84,-36.798 h 374.15 c 20.35,0 36.85,16.498 36.85,36.798 v 1897.9 c 0,20.4 -16.5,36.8 -36.85,36.8 z"
         style="fill:none;stroke:#424ca8;stroke-width:23.0922;stroke-linecap:butt;stroke-linejoin:miter;stroke-miterlimit:10;stroke-dasharray:none;stroke-opacity:1"
         transform="matrix(0.13333333,0,0,-0.13333333,0,1792.3733)" />
      <path
         id="path12"
         d="m 9466.74,1978.2 c 0,-371.5 -285.74,-593.6 -561.98,-593.6 -305.94,0 -545.57,260.8 -545.57,593.6 0,328.1 239.63,585.2 545.57,585.2 270.28,0 561.98,-223.8 561.98,-585.2 z m 419.09,2047.98 h -374.16 c -20.34,0 -36.84,-16.45 -36.84,-36.79 V 2662 l -22.69,36.5 c -114.05,183.4 -359.24,301.8 -624.72,301.8 -457.25,0 -920.14,-352.5 -920.14,-1026.2 0,-587.7 397.35,-1030.799 924.2,-1030.799 200.21,0 482.92,80.199 620.61,306.199 l 22.74,37.4 v -264 c 0,-20.3 16.5,-36.798 36.84,-36.798 h 374.16 c 20.34,0 36.84,16.498 36.84,36.798 v 2966.49 c 0,20.34 -16.5,36.79 -36.84,36.79"
         style="fill:#424ca8;fill-opacity:1;fill-rule:nonzero;stroke:none"
         transform="matrix(0.13333333,0,0,-0.13333333,0,1792.3733)" />
      <path
         id="path13"
         d="m 9466.74,1978.2 c 0,-371.5 -285.74,-593.6 -561.98,-593.6 -305.94,0 -545.57,260.8 -545.57,593.6 0,328.1 239.63,585.2 545.57,585.2 270.28,0 561.98,-223.8 561.98,-585.2 z m 419.09,2047.98 h -374.16 c -20.34,0 -36.84,-16.45 -36.84,-36.79 V 2662 l -22.69,36.5 c -114.05,183.4 -359.24,301.8 -624.72,301.8 -457.25,0 -920.14,-352.5 -920.14,-1026.2 0,-587.7 397.35,-1030.799 924.2,-1030.799 200.21,0 482.92,80.199 620.61,306.199 l 22.74,37.4 v -264 c 0,-20.3 16.5,-36.798 36.84,-36.798 h 374.16 c 20.34,0 36.84,16.498 36.84,36.798 v 2966.49 c 0,20.34 -16.5,36.79 -36.84,36.79 z"
         style="fill:none;stroke:#424ca8;stroke-width:23.0922;stroke-linecap:butt;stroke-linejoin:miter;stroke-miterlimit:10;stroke-dasharray:none;stroke-opacity:1"
         transform="matrix(0.13333333,0,0,-0.13333333,0,1792.3733)" />
      <path
         id="path14"
         d="m 10821.9,2957.6 h -374.1 c -20.3,0 -36.8,-16.4 -36.8,-36.8 V 1022.9 c 0,-20.3 16.5,-36.798 36.8,-36.798 h 374.1 c 20.4,0 36.9,16.498 36.9,36.798 v 1897.9 c 0,20.4 -16.5,36.8 -36.9,36.8"
         style="fill:#424ca8;fill-opacity:1;fill-rule:nonzero;stroke:none"
         transform="matrix(0.13333333,0,0,-0.13333333,0,1792.3733)" />
      <path
         id="path15"
         d="m 10821.9,2957.6 h -374.1 c -20.3,0 -36.8,-16.4 -36.8,-36.8 V 1022.9 c 0,-20.3 16.5,-36.798 36.8,-36.798 h 374.1 c 20.4,0 36.9,16.498 36.9,36.798 v 1897.9 c 0,20.4 -16.5,36.8 -36.9,36.8 z"
         style="fill:none;stroke:#424ca8;stroke-width:23.0922;stroke-linecap:butt;stroke-linejoin:miter;stroke-miterlimit:10;stroke-dasharray:none;stroke-opacity:1"
         transform="matrix(0.13333333,0,0,-0.13333333,0,1792.3733)" />
      <path
         id="path16"
         d="m 12397.5,3000.3 c -164,0 -455.2,-88.2 -566.7,-323 l -36,6.9 v 236.6 c 0,20.4 -16.5,36.8 -36.8,36.8 h -374.1 c -20.3,0 -36.8,-16.4 -36.8,-36.8 V 1022.9 c 0,-20.3 16.5,-36.798 36.8,-36.798 h 374.1 c 20.3,0 36.8,16.498 36.8,36.798 v 993.9 c 0,384.5 267.7,520.9 496.8,520.9 202.6,0 407.2,-151.9 407.2,-491 V 1022.9 c 0,-20.3 16.5,-36.798 36.8,-36.798 h 374.1 c 20.4,0 36.9,16.498 36.9,36.798 v 1070.7 c 0,584.7 -266.1,906.7 -749.1,906.7"
         style="fill:#424ca8;fill-opacity:1;fill-rule:nonzero;stroke:none"
         transform="matrix(0.13333333,0,0,-0.13333333,0,1792.3733)" />
      <path
         id="path17"
         d="m 12397.5,3000.3 c -164,0 -455.2,-88.2 -566.7,-323 l -36,6.9 v 236.6 c 0,20.4 -16.5,36.8 -36.8,36.8 h -374.1 c -20.3,0 -36.8,-16.4 -36.8,-36.8 V 1022.9 c 0,-20.3 16.5,-36.798 36.8,-36.798 h 374.1 c 20.3,0 36.8,16.498 36.8,36.798 v 993.9 c 0,384.5 267.7,520.9 496.8,520.9 202.6,0 407.2,-151.9 407.2,-491 V 1022.9 c 0,-20.3 16.5,-36.798 36.8,-36.798 h 374.1 c 20.4,0 36.9,16.498 36.9,36.798 v 1070.7 c 0,584.7 -266.1,906.7 -749.1,906.7 z"
         style="fill:none;stroke:#424ca8;stroke-width:23.0922;stroke-linecap:butt;stroke-linejoin:miter;stroke-miterlimit:10;stroke-dasharray:none;stroke-opacity:1"
         transform="matrix(0.13333333,0,0,-0.13333333,0,1792.3733)" />
      <path
         id="path18"
         d="m 14963,1978.2 c 0,-371.5 -285.7,-593.6 -561.9,-593.6 -306,0 -545.6,260.8 -545.6,593.6 0,328.1 239.6,585.2 545.6,585.2 270.2,0 561.9,-223.8 561.9,-585.2 z m 419.1,979.4 H 15008 c -20.4,0 -36.9,-16.4 -36.9,-36.8 V 2662 l -22.7,36.5 c -114,183.4 -359.2,301.8 -624.7,301.8 -457.2,0 -920.1,-352.5 -920.1,-1026.2 0,-587.7 397.3,-1030.799 924.2,-1030.799 200.2,0 482.8,80.199 620.6,306.199 l 22.7,37.3 v -263.9 c 0,-20.3 16.5,-36.798 36.9,-36.798 h 374.1 c 20.4,0 36.9,16.498 36.9,36.798 v 1897.9 c 0,20.4 -16.5,36.8 -36.9,36.8"
         style="fill:#424ca8;fill-opacity:1;fill-rule:nonzero;stroke:none"
         transform="matrix(0.13333333,0,0,-0.13333333,0,1792.3733)" />
      <path
         id="path19"
         d="m 14963,1978.2 c 0,-371.5 -285.7,-593.6 -561.9,-593.6 -306,0 -545.6,260.8 -545.6,593.6 0,328.1 239.6,585.2 545.6,585.2 270.2,0 561.9,-223.8 561.9,-585.2 z m 419.1,979.4 H 15008 c -20.4,0 -36.9,-16.4 -36.9,-36.8 V 2662 l -22.7,36.5 c -114,183.4 -359.2,301.8 -624.7,301.8 -457.2,0 -920.1,-352.5 -920.1,-1026.2 0,-587.7 397.3,-1030.799 924.2,-1030.799 200.2,0 482.8,80.199 620.6,306.199 l 22.7,37.3 v -263.9 c 0,-20.3 16.5,-36.798 36.9,-36.798 h 374.1 c 20.4,0 36.9,16.498 36.9,36.798 v 1897.9 c 0,20.4 -16.5,36.8 -36.9,36.8 z"
         style="fill:none;stroke:#424ca8;stroke-width:23.0922;stroke-linecap:butt;stroke-linejoin:miter;stroke-miterlimit:10;stroke-dasharray:none;stroke-opacity:1"
         transform="matrix(0.13333333,0,0,-0.13333333,0,1792.3733)" />
      <path
         id="path20"
         d="m 17088.8,2950.9 c -71.1,31 -171.5,49.4 -268.7,49.4 -248.4,0 -429.2,-148.9 -524.2,-431.1 l -33.7,5 v 346.6 c 0,20.4 -16.5,36.8 -36.8,36.8 h -374.1 c -20.4,0 -36.9,-16.4 -36.9,-36.8 V 1022.9 c 0,-20.3 16.5,-36.798 36.9,-36.798 h 378.2 c 20.3,0 36.8,16.498 36.8,36.798 v 647.7 c 0,773 308.7,888.4 492.7,888.4 77.2,0 153.5,-15.8 226.7,-46.9 10.2,-4.3 21.7,-3.7 31.6,1.4 9.8,5.1 16.7,14.4 18.9,25.3 l 74,371.1 c 3.4,17 -5.5,34.1 -21.4,41"
         style="fill:#424ca8;fill-opacity:1;fill-rule:nonzero;stroke:none"
         transform="matrix(0.13333333,0,0,-0.13333333,0,1792.3733)" />
      <path
         id="path21"
         d="m 17088.8,2950.9 c -71.1,31 -171.5,49.4 -268.7,49.4 -248.4,0 -429.2,-148.9 -524.2,-431.1 l -33.7,5 v 346.6 c 0,20.4 -16.5,36.8 -36.8,36.8 h -374.1 c -20.4,0 -36.9,-16.4 -36.9,-36.8 V 1022.9 c 0,-20.3 16.5,-36.798 36.9,-36.798 h 378.2 c 20.3,0 36.8,16.498 36.8,36.798 v 647.7 c 0,773 308.7,888.4 492.7,888.4 77.2,0 153.5,-15.8 226.7,-46.9 10.2,-4.3 21.7,-3.7 31.6,1.4 9.8,5.1 16.7,14.4 18.9,25.3 l 74,371.1 c 3.4,17 -5.5,34.1 -21.4,41 z"
         style="fill:none;stroke:#424ca8;stroke-width:23.0922;stroke-linecap:butt;stroke-linejoin:miter;stroke-miterlimit:10;stroke-dasharray:none;stroke-opacity:1"
         transform="matrix(0.13333333,0,0,-0.13333333,0,1792.3733)" />
      <path
         id="path22"
         d="m 19164.3,2941.5 c -6.9,10.1 -18.3,16.1 -30.5,16.1 h -402.9 c -15.2,0 -28.9,-9.3 -34.4,-23.5 l -487.8,-1263.3 -492,1263.4 c -5.5,14.1 -19.1,23.4 -34.3,23.4 h -410.5 c -12.3,0 -23.7,-6 -30.6,-16.2 -6.8,-10.2 -8.2,-23.1 -3.5,-34.5 L 17969.4,1110.8 17565.8,61.5 c -4.4,-11.2969 -2.8,-24.0977 4,-34.0977 C 17576.7,17.5 17588,11.5 17600.2,11.5 h 391.9 c 15.1,0 28.6,9.1016 34.2,23.1992 L 19168,2907.3 c 4.5,11.3 3.1,24.1 -3.7,34.2"
         style="fill:#424ca8;fill-opacity:1;fill-rule:nonzero;stroke:none"
         transform="matrix(0.13333333,0,0,-0.13333333,0,1792.3733)" />
      <path
         id="path23"
         d="m 19164.3,2941.5 c -6.9,10.1 -18.3,16.1 -30.5,16.1 h -402.9 c -15.2,0 -28.9,-9.3 -34.4,-23.5 l -487.8,-1263.3 -492,1263.4 c -5.5,14.1 -19.1,23.4 -34.3,23.4 h -410.5 c -12.3,0 -23.7,-6 -30.6,-16.2 -6.8,-10.2 -8.2,-23.1 -3.5,-34.5 L 17969.4,1110.8 17565.8,61.5 c -4.4,-11.2969 -2.8,-24.0977 4,-34.0977 C 17576.7,17.5 17588,11.5 17600.2,11.5 h 391.9 c 15.1,0 28.6,9.1016 34.2,23.1992 L 19168,2907.3 c 4.5,11.3 3.1,24.1 -3.7,34.2 z"
         style="fill:none;stroke:#424ca8;stroke-width:23.0922;stroke-linecap:butt;stroke-linejoin:miter;stroke-miterlimit:10;stroke-dasharray:none;stroke-opacity:1"
         transform="matrix(0.13333333,0,0,-0.13333333,0,1792.3733)" />
      <path
         id="path24"
         d="m 13794,10362.9 c -560,1788.5 -2258.5,3056.8 -4151.54,3056.8 -1615.51,0 -3058.69,-863.5 -3819.58,-2269.3 -1517.3,-271.8 -2674.8,-1629.47 -2674.8,-3187.35 0,-1272.77 742.51,-2435.31 1891.1,-2961.78 l 81.73,-37.37 h 4.46 v 923.7 c -709.57,436.51 -1153.7,1222.71 -1153.7,2075.45 0,1218.93 950.3,2273.15 2164.17,2400.45 l 228.73,24.1 99.45,207.8 c 590.44,1234.1 1808.11,2000.7 3178.44,2000.7 1617.44,0 3059.94,-1142.3 3430.54,-2716.61 l 72.9,-312.31 321.2,-5.08 c 1088.4,-17.75 1974.1,-918 1974.1,-2007.05 0,-767.2 -442.2,-1393.78 -1193.6,-1711.81 v -876.19 l 54.5,17.76 c 1210.7,395.96 1962.7,1381.1 1962.7,2570.24 0,1429.91 -1082.7,2628.55 -2470.8,2807.85"
         style="fill:#424ca8;fill-opacity:1;fill-rule:nonzero;stroke:none"
         transform="matrix(0.13333333,0,0,-0.13333333,0,1792.3733)" />
      <path
         id="path25"
         d="m 13794,10362.9 c -560,1788.5 -2258.5,3056.8 -4151.54,3056.8 -1615.51,0 -3058.69,-863.5 -3819.58,-2269.3 -1517.3,-271.8 -2674.8,-1629.47 -2674.8,-3187.35 0,-1272.77 742.51,-2435.31 1891.1,-2961.78 l 81.73,-37.37 h 4.46 v 923.7 c -709.57,436.51 -1153.7,1222.71 -1153.7,2075.45 0,1218.93 950.3,2273.15 2164.17,2400.45 l 228.73,24.1 99.45,207.8 c 590.44,1234.1 1808.11,2000.7 3178.44,2000.7 1617.44,0 3059.94,-1142.3 3430.54,-2716.61 l 72.9,-312.31 321.2,-5.08 c 1088.4,-17.75 1974.1,-918 1974.1,-2007.05 0,-767.2 -442.2,-1393.78 -1193.6,-1711.81 v -876.19 l 54.5,17.76 c 1210.7,395.96 1962.7,1381.1 1962.7,2570.24 0,1429.91 -1082.7,2628.55 -2470.8,2807.85 z"
         style="fill:none;stroke:#424ca8;stroke-width:46.1844;stroke-linecap:butt;stroke-linejoin:miter;stroke-miterlimit:10;stroke-dasharray:none;stroke-opacity:1"
         transform="matrix(0.13333333,0,0,-0.13333333,0,1792.3733)" />
      <path
         id="path26"
         d="m 8048.48,5070.72 180.68,-180.68 c 22.67,-22.67 6.61,-61.43 -25.45,-61.43 H 6779.18 c -357.75,0 -647.75,290 -647.75,647.75 v 2770.92 c 0,19.88 -16.11,35.99 -35.99,35.99 h -308.97 c -32.06,0 -48.11,38.76 -25.44,61.43 l 1208.62,1208.62 c 14.05,14.05 36.84,14.05 50.89,0 L 8229.16,8344.7 c 22.67,-22.67 6.61,-61.43 -25.45,-61.43 h -308.97 c -19.87,0 -35.98,-16.11 -35.98,-35.99 V 5528.75 c 0,-171.8 68.24,-336.56 189.72,-458.03"
         style="fill:#424ca8;fill-opacity:1;fill-rule:nonzero;stroke:none"
         transform="matrix(0.13333333,0,0,-0.13333333,0,1792.3733)" />
      <path
         id="path27"
         d="m 8048.48,5070.72 180.68,-180.68 c 22.67,-22.67 6.61,-61.43 -25.45,-61.43 H 6779.18 c -357.75,0 -647.75,290 -647.75,647.75 v 2770.92 c 0,19.88 -16.11,35.99 -35.99,35.99 h -308.97 c -32.06,0 -48.11,38.76 -25.44,61.43 l 1208.62,1208.62 c 14.05,14.05 36.84,14.05 50.89,0 L 8229.16,8344.7 c 22.67,-22.67 6.61,-61.43 -25.45,-61.43 h -308.97 c -19.87,0 -35.98,-16.11 -35.98,-35.99 V 5528.75 c 0,-171.8 68.24,-336.56 189.72,-458.03 z"
         style="fill:none;stroke:#424ca8;stroke-width:46.1844;stroke-linecap:butt;stroke-linejoin:miter;stroke-miterlimit:10;stroke-dasharray:none;stroke-opacity:1"
         transform="matrix(0.13333333,0,0,-0.13333333,0,1792.3733)" />
      <path
         id="path28"
         d="m 10720.5,5070.72 180.7,-180.68 c 22.6,-22.67 6.6,-61.43 -25.5,-61.43 H 9451.18 c -357.74,0 -647.75,290 -647.75,647.75 v 2074.56 c 0,19.87 -16.11,35.99 -35.99,35.99 h -308.97 c -32.06,0 -48.11,38.76 -25.44,61.43 l 1208.62,1208.62 c 14.05,14.05 36.84,14.05 50.89,0 L 10901.2,7648.34 c 22.6,-22.67 6.6,-61.43 -25.5,-61.43 h -309 c -19.8,0 -35.9,-16.12 -35.9,-35.99 V 5528.75 c 0,-171.8 68.2,-336.56 189.7,-458.03"
         style="fill:#424ca8;fill-opacity:1;fill-rule:nonzero;stroke:none"
         transform="matrix(0.13333333,0,0,-0.13333333,0,1792.3733)" />
      <path
         id="path29"
         d="m 10720.5,5070.72 180.7,-180.68 c 22.6,-22.67 6.6,-61.43 -25.5,-61.43 H 9451.18 c -357.74,0 -647.75,290 -647.75,647.75 v 2074.56 c 0,19.87 -16.11,35.99 -35.99,35.99 h -308.97 c -32.06,0 -48.11,38.76 -25.44,61.43 l 1208.62,1208.62 c 14.05,14.05 36.84,14.05 50.89,0 L 10901.2,7648.34 c 22.6,-22.67 6.6,-61.43 -25.5,-61.43 h -309 c -19.8,0 -35.9,-16.12 -35.9,-35.99 V 5528.75 c 0,-171.8 68.2,-336.56 189.7,-458.03 z"
         style="fill:none;stroke:#424ca8;stroke-width:46.1844;stroke-linecap:butt;stroke-linejoin:miter;stroke-miterlimit:10;stroke-dasharray:none;stroke-opacity:1"
         transform="matrix(0.13333333,0,0,-0.13333333,0,1792.3733)" />
      <path
         id="path30"
         d="m 13392.5,5070.72 180.7,-180.68 c 22.6,-22.67 6.6,-61.43 -25.5,-61.43 h -1424.5 c -357.8,0 -647.8,290 -647.8,647.75 v 1378.2 c 0,19.87 -16.1,35.99 -36,35.99 h -308.9 c -32.1,0 -48.1,38.76 -25.5,61.43 l 1208.6,1208.62 c 14.1,14.05 36.9,14.05 50.9,0 l 1208.7,-1208.62 c 22.6,-22.67 6.6,-61.43 -25.5,-61.43 h -309 c -19.8,0 -35.9,-16.12 -35.9,-35.99 V 5528.75 c 0,-171.8 68.2,-336.56 189.7,-458.03"
         style="fill:#424ca8;fill-opacity:1;fill-rule:nonzero;stroke:none"
         transform="matrix(0.13333333,0,0,-0.13333333,0,1792.3733)" />
      <path
         id="path31"
         d="m 13392.5,5070.72 180.7,-180.68 c 22.6,-22.67 6.6,-61.43 -25.5,-61.43 h -1424.5 c -357.8,0 -647.8,290 -647.8,647.75 v 1378.2 c 0,19.87 -16.1,35.99 -36,35.99 h -308.9 c -32.1,0 -48.1,38.76 -25.5,61.43 l 1208.6,1208.62 c 14.1,14.05 36.9,14.05 50.9,0 l 1208.7,-1208.62 c 22.6,-22.67 6.6,-61.43 -25.5,-61.43 h -309 c -19.8,0 -35.9,-16.12 -35.9,-35.99 V 5528.75 c 0,-171.8 68.2,-336.56 189.7,-458.03 z"
         style="fill:none;stroke:#424ca8;stroke-width:46.1844;stroke-linecap:butt;stroke-linejoin:miter;stroke-miterlimit:10;stroke-dasharray:none;stroke-opacity:1"
         transform="matrix(0.13333333,0,0,-0.13333333,0,1792.3733)" />
    </g>
  </g>
</svg>
