<?xml version="1.0" encoding="UTF-8"?>
<svg version="1.1" xmlns="http://www.w3.org/2000/svg" width="465" height="141">
<path d="M0 0 C7.39164249 3.89247962 11.93728887 10.32347795 14.46484375 18.1796875 C16.58230587 28.82964491 16.59227948 40.87178215 11.125 50.5 C6.25983155 57.75464359 0.70600513 61.46557949 -7.75 63.375 C-15.16262569 63.9732631 -22.14946142 62.31465745 -27.875 57.5 C-33.14795285 51.95409429 -33.14795285 51.95409429 -34.875 48.5 C-35.205 59.72 -35.535 70.94 -35.875 82.5 C-36.865 82.5 -37.855 82.5 -38.875 82.5 C-38.875 55.44 -38.875 28.38 -38.875 0.5 C-37.885 0.17 -36.895 -0.16 -35.875 -0.5 C-35.545 4.12 -35.215 8.74 -34.875 13.5 C-34.05 12.118125 -33.225 10.73625 -32.375 9.3125 C-25.23171764 -1.4618095 -12.04097254 -4.71258753 0 0 Z M-29.1875 9.3125 C-35.59793824 18.70170166 -37.06455281 28.51360688 -35.0625 39.625 C-33.32860156 47.48774778 -29.92064662 51.85891804 -24 57.1875 C-18.3297339 60.68972318 -12.17532408 61.21542462 -5.71484375 60.140625 C1.20025273 58.38516311 5.18762377 54.31805241 9.125 48.5 C10.63710178 45.54904705 11.48622021 42.7475779 12.125 39.5 C12.28871094 38.66855469 12.45242187 37.83710937 12.62109375 36.98046875 C13.91540216 27.86693635 12.763639 17.65021494 7.4375 9.9375 C3.15977002 5.0977325 -0.67297388 1.92269737 -7.21875 1.05859375 C-16.64096514 0.74653321 -23.18236426 1.78781653 -29.1875 9.3125 Z " fill="#616B75" transform="translate(185.875,38.5)"/>
<path d="M0 0 C7.32209154 4.82302986 10.89992293 11.59969172 13 20 C13 23.3 13 26.6 13 30 C-3.83 30 -20.66 30 -38 30 C-36.27366945 43.1458893 -36.27366945 43.1458893 -29.0703125 53.6953125 C-23.06318307 57.66228476 -17.16749073 58.7064731 -10 58 C-3.84218996 56.6745053 0.59729855 54.50752767 5 50 C7.27882286 46.17483305 8.68601727 42.24517497 10 38 C10.66 38 11.32 38 12 38 C12.55898073 43.58980728 11.09005065 47.44671948 8 52 C2.45573352 58.10692718 -4.32201072 61.3479557 -12.54296875 61.9921875 C-20.03746891 62.01601739 -26.45684713 60.72939073 -32.28125 55.8359375 C-40.3403632 47.22733931 -41.58703315 36.48925676 -41.3046875 25.234375 C-40.81828221 16.18964849 -37.49268867 9.35026705 -31.1875 2.8828125 C-22.62637433 -4.48587067 -9.79179903 -5.87507942 0 0 Z M-31.25 7.125 C-36.06392385 13.2410508 -38 19.27615427 -38 27 C-22.16 27 -6.32 27 10 27 C10 17.57312465 8.47098836 11.54187999 1.8671875 4.6640625 C-3.80846481 -0.39415483 -9.47919346 -0.54644422 -16.84375 -0.34375 C-22.98810504 0.32543718 -27.02388154 2.68914862 -31.25 7.125 Z " fill="#69737C" transform="translate(284,40)"/>
<path d="M0 0 C7.32209154 4.82302986 10.89992293 11.59969172 13 20 C13 23.3 13 26.6 13 30 C-3.83 30 -20.66 30 -38 30 C-36.27366945 43.1458893 -36.27366945 43.1458893 -29.0703125 53.6953125 C-23.06318307 57.66228476 -17.16749073 58.7064731 -10 58 C-3.84218996 56.6745053 0.59729855 54.50752767 5 50 C7.27882286 46.17483305 8.68601727 42.24517497 10 38 C10.66 38 11.32 38 12 38 C12.55898073 43.58980728 11.09005065 47.44671948 8 52 C2.45573352 58.10692718 -4.32201072 61.3479557 -12.54296875 61.9921875 C-20.03746891 62.01601739 -26.45684713 60.72939073 -32.28125 55.8359375 C-40.3403632 47.22733931 -41.58703315 36.48925676 -41.3046875 25.234375 C-40.81828221 16.18964849 -37.49268867 9.35026705 -31.1875 2.8828125 C-22.62637433 -4.48587067 -9.79179903 -5.87507942 0 0 Z M-31.25 7.125 C-36.06392385 13.2410508 -38 19.27615427 -38 27 C-22.16 27 -6.32 27 10 27 C10 17.57312465 8.47098836 11.54187999 1.8671875 4.6640625 C-3.80846481 -0.39415483 -9.47919346 -0.54644422 -16.84375 -0.34375 C-22.98810504 0.32543718 -27.02388154 2.68914862 -31.25 7.125 Z " fill="#69737C" transform="translate(72,40)"/>
<path d="M0 0 C3.24616103 3.0178596 5.59124354 5.77373063 7 10 C7.03954234 12.33299825 7.04401732 14.66708189 7 17 C6.01 16.67 5.02 16.34 4 16 C3.50717059 14.02868236 3.01995474 12.05540774 2.5859375 10.0703125 C1.71922862 7.00794112 0.2640088 5.19932283 -2 3 C-6.22580211 0.80227445 -10.26944699 0.66582844 -14.9375 0.6875 C-15.62779297 0.67138672 -16.31808594 0.65527344 -17.02929688 0.63867188 C-22.62252733 0.63337023 -26.64323044 1.95746638 -30.875 5.625 C-32.60937412 9.28645647 -32.84762691 13.042183 -32 17 C-29.14244862 21.35162684 -26.90816867 22.77687919 -21.9140625 24.09765625 C-20.73585938 24.42443359 -19.55765625 24.75121094 -18.34375 25.08789062 C-17.1165625 25.40951172 -15.889375 25.73113281 -14.625 26.0625 C2.80869152 30.71578447 2.80869152 30.71578447 8 37 C9.35682449 41.07047347 9.52472254 44.74391717 9 49 C6.3646243 54.17314489 2.86604775 57.48736369 -2.25 60.1875 C-11.30865629 62.86392118 -21.46146967 62.62920332 -30 58.25 C-36.26957738 53.54781697 -37.55096556 48.64461921 -38.703125 41.1953125 C-38.80109375 40.47085938 -38.8990625 39.74640625 -39 39 C-38.01 39 -37.02 39 -36 39 C-35.80664062 39.66386719 -35.61328125 40.32773438 -35.4140625 41.01171875 C-34.62716565 43.6801561 -33.81471762 46.33994697 -33 49 C-32.71125 49.99 -32.4225 50.98 -32.125 52 C-30.53938739 54.81886686 -29.07490223 55.11169491 -26 56 C-24.906875 56.37125 -23.81375 56.7425 -22.6875 57.125 C-15.74389876 58.77263419 -8.73069449 58.44639634 -2 56 C0.94600243 54.14488132 3.41504222 52.16991556 5 49 C5.27374623 46.96048644 5.27374623 46.96048644 5.3125 44.6875 C5.34988281 43.92824219 5.38726562 43.16898438 5.42578125 42.38671875 C4.81014409 38.93576185 3.5087244 37.43233696 1 35 C-1.50146852 33.95408982 -3.72028381 33.1850301 -6.3125 32.5 C-7.74247449 32.08431933 -9.17215511 31.66762661 -10.6015625 31.25 C-11.32891602 31.04375 -12.05626953 30.8375 -12.80566406 30.625 C-16.28318203 29.63451869 -19.73927242 28.58768726 -23.1875 27.5 C-24.37730469 27.1390625 -25.56710937 26.778125 -26.79296875 26.40625 C-30.95663192 24.58052681 -33.94509563 22.10980874 -36 18 C-36.54035594 13.0747885 -36.54435469 9.13058282 -34.375 4.625 C-26.32800869 -4.26904303 -10.36867842 -6.9044332 0 0 Z " fill="#58636D" transform="translate(402,40)"/>
<path d="M0 0 C3.24616103 3.0178596 5.59124354 5.77373063 7 10 C7.03954234 12.33299825 7.04401732 14.66708189 7 17 C6.01 16.67 5.02 16.34 4 16 C3.50717059 14.02868236 3.01995474 12.05540774 2.5859375 10.0703125 C1.71922862 7.00794112 0.2640088 5.19932283 -2 3 C-6.22580211 0.80227445 -10.26944699 0.66582844 -14.9375 0.6875 C-15.62779297 0.67138672 -16.31808594 0.65527344 -17.02929688 0.63867188 C-22.62252733 0.63337023 -26.64323044 1.95746638 -30.875 5.625 C-32.60937412 9.28645647 -32.84762691 13.042183 -32 17 C-29.14244862 21.35162684 -26.90816867 22.77687919 -21.9140625 24.09765625 C-20.73585938 24.42443359 -19.55765625 24.75121094 -18.34375 25.08789062 C-17.1165625 25.40951172 -15.889375 25.73113281 -14.625 26.0625 C2.80869152 30.71578447 2.80869152 30.71578447 8 37 C9.35682449 41.07047347 9.52472254 44.74391717 9 49 C6.3646243 54.17314489 2.86604775 57.48736369 -2.25 60.1875 C-11.30865629 62.86392118 -21.46146967 62.62920332 -30 58.25 C-36.26957738 53.54781697 -37.55096556 48.64461921 -38.703125 41.1953125 C-38.80109375 40.47085938 -38.8990625 39.74640625 -39 39 C-38.01 39 -37.02 39 -36 39 C-35.80664062 39.66386719 -35.61328125 40.32773438 -35.4140625 41.01171875 C-34.62716565 43.6801561 -33.81471762 46.33994697 -33 49 C-32.71125 49.99 -32.4225 50.98 -32.125 52 C-30.53938739 54.81886686 -29.07490223 55.11169491 -26 56 C-24.906875 56.37125 -23.81375 56.7425 -22.6875 57.125 C-15.74389876 58.77263419 -8.73069449 58.44639634 -2 56 C0.94600243 54.14488132 3.41504222 52.16991556 5 49 C5.27374623 46.96048644 5.27374623 46.96048644 5.3125 44.6875 C5.34988281 43.92824219 5.38726562 43.16898438 5.42578125 42.38671875 C4.81014409 38.93576185 3.5087244 37.43233696 1 35 C-1.50146852 33.95408982 -3.72028381 33.1850301 -6.3125 32.5 C-7.74247449 32.08431933 -9.17215511 31.66762661 -10.6015625 31.25 C-11.32891602 31.04375 -12.05626953 30.8375 -12.80566406 30.625 C-16.28318203 29.63451869 -19.73927242 28.58768726 -23.1875 27.5 C-24.37730469 27.1390625 -25.56710937 26.778125 -26.79296875 26.40625 C-30.95663192 24.58052681 -33.94509563 22.10980874 -36 18 C-36.54035594 13.0747885 -36.54435469 9.13058282 -34.375 4.625 C-26.32800869 -4.26904303 -10.36867842 -6.9044332 0 0 Z " fill="#58636D" transform="translate(344,40)"/>
<path d="M0 0 C2.6475909 0.36799101 3.79234841 0.78150618 5.65991211 2.74658203 C6.19366455 3.49278809 6.72741699 4.23899414 7.27734375 5.0078125 C7.87353516 5.83023438 8.46972656 6.65265625 9.08398438 7.5 C9.69564453 8.36625 10.30730469 9.2325 10.9375 10.125 C11.54529297 10.96804687 12.15308594 11.81109375 12.77929688 12.6796875 C14.53016966 15.11239963 16.26670997 17.55474108 18 20 C18.97990898 21.37279557 19.96030895 22.74524094 20.94140625 24.1171875 C21.96041016 25.54417969 21.96041016 25.54417969 23 27 C28.93432189 20.49812629 34.04774267 13.56017658 39.1015625 6.36328125 C39.69195312 5.54214844 40.28234375 4.72101562 40.890625 3.875 C41.41688477 3.12992188 41.94314453 2.38484375 42.48535156 1.6171875 C43.23510254 0.81667969 43.23510254 0.81667969 44 0 C44.99 0 45.98 0 47 0 C45.45316924 4.92173422 42.55587717 8.29178201 39.3125 12.1875 C34.59905066 17.95192115 30.14029711 23.80413284 26 30 C29.60782226 34.84207724 33.25598125 39.65124736 36.9375 44.4375 C37.36514648 44.994375 37.79279297 45.55125 38.23339844 46.125 C40.20423567 48.68693875 42.18734535 51.23559593 44.19921875 53.765625 C44.83472656 54.56484375 45.47023437 55.3640625 46.125 56.1875 C46.68445313 56.88230469 47.24390625 57.57710937 47.8203125 58.29296875 C49 60 49 60 49 62 C45.83116177 61.73292252 44.97064435 60.96719074 42.80859375 58.55078125 C42.00826139 57.47872383 41.21851108 56.39871392 40.4375 55.3125 C39.56344234 54.13601806 38.68840492 52.96026353 37.8125 51.78515625 C37.35746094 51.16914551 36.90242188 50.55313477 36.43359375 49.91845703 C33.9919404 46.65099926 31.46354154 43.45237013 28.9375 40.25 C28.46046631 39.64196533 27.98343262 39.03393066 27.49194336 38.4074707 C25.3518488 35.61203344 25.3518488 35.61203344 23 33 C22.24976562 34.00417969 21.49953125 35.00835937 20.7265625 36.04296875 C14.21608069 44.74640996 7.65255329 53.40466566 1 62 C-0.32 61.67 -1.64 61.34 -3 61 C-2.46632813 60.35675781 -1.93265625 59.71351562 -1.3828125 59.05078125 C3.79039161 52.77670499 8.80648009 46.40986345 13.73828125 39.9453125 C16 37 16 37 18.35546875 34.4296875 C20.26712907 32.15585771 20.26712907 32.15585771 19.78930664 29.609375 C18.92960134 26.76726851 17.86925711 25.12566552 16.015625 22.8203125 C15.40976563 22.05589844 14.80390625 21.29148437 14.1796875 20.50390625 C13.54289062 19.71886719 12.90609375 18.93382813 12.25 18.125 C0 2.79979253 0 2.79979253 0 0 Z " fill="#5D6872" transform="translate(91,38)"/>
<path d="M0 0 C7.32209154 4.82302986 10.89992293 11.59969172 13 20 C13 22.97 13 25.94 13 29 C-3.83 29 -20.66 29 -38 29 C-38 28.67 -38 28.34 -38 28 C-21.83 28 -5.66 28 11 28 C9.66369246 18.64584721 7.32254938 10.39834412 0 4 C-6.17475592 0.09352176 -12.85594393 0.21406552 -20 1 C-25.68941511 2.61124236 -29.95815056 5.88664019 -33 11 C-35.59786582 16.47633736 -37.4723241 22.14390905 -39 28 C-39.33 28 -39.66 28 -40 28 C-40.70906726 18.56546612 -38.70489225 12.10095164 -32.8125 4.6875 C-24.40562491 -4.21703366 -10.64649846 -6.38789908 0 0 Z " fill="#515D67" transform="translate(284,40)"/>
<path d="M0 0 C7.32209154 4.82302986 10.89992293 11.59969172 13 20 C13 22.97 13 25.94 13 29 C-3.83 29 -20.66 29 -38 29 C-38 28.67 -38 28.34 -38 28 C-21.83 28 -5.66 28 11 28 C9.66369246 18.64584721 7.32254938 10.39834412 0 4 C-6.17475592 0.09352176 -12.85594393 0.21406552 -20 1 C-25.68941511 2.61124236 -29.95815056 5.88664019 -33 11 C-35.59786582 16.47633736 -37.4723241 22.14390905 -39 28 C-39.33 28 -39.66 28 -40 28 C-40.70906726 18.56546612 -38.70489225 12.10095164 -32.8125 4.6875 C-24.40562491 -4.21703366 -10.64649846 -6.38789908 0 0 Z " fill="#515D67" transform="translate(72,40)"/>
<path d="M0 0 C1.21236328 0.01353516 1.21236328 0.01353516 2.44921875 0.02734375 C3.37154297 0.04474609 3.37154297 0.04474609 4.3125 0.0625 C3.9825 1.0525 3.6525 2.0425 3.3125 3.0625 C2.58804688 3.16046875 1.86359375 3.2584375 1.1171875 3.359375 C-6.99084667 4.58338972 -6.99084667 4.58338972 -13.6875 9.0625 C-18.61488959 16.99734264 -19.8188711 23.92276326 -20.00390625 33.08203125 C-20.02468735 33.94060226 -20.04546844 34.79917328 -20.06687927 35.6837616 C-20.13202523 38.41409654 -20.19109654 41.14452395 -20.25 43.875 C-20.2932185 45.73112918 -20.33683384 47.58724916 -20.38085938 49.44335938 C-20.48767061 53.98297925 -20.58903565 58.52269172 -20.6875 63.0625 C-21.6775 63.0625 -22.6675 63.0625 -23.6875 63.0625 C-23.6875 42.9325 -23.6875 22.8025 -23.6875 2.0625 C-22.6975 1.7325 -21.7075 1.4025 -20.6875 1.0625 C-20.3575 4.6925 -20.0275 8.3225 -19.6875 12.0625 C-19.1925 11.175625 -18.6975 10.28875 -18.1875 9.375 C-14.13440395 3.24451063 -7.22868938 -0.10476361 0 0 Z " fill="#636D77" transform="translate(236.6875,36.9375)"/>
<path d="M0 0 C0.99 0 1.98 0 3 0 C3.19335938 0.66386719 3.38671875 1.32773438 3.5859375 2.01171875 C4.37283435 4.6801561 5.18528238 7.33994697 6 10 C6.28875 10.99 6.5775 11.98 6.875 13 C8.46061261 15.81886686 9.92509777 16.11169491 13 17 C14.258125 17.37125 15.51625 17.7425 16.8125 18.125 C17.864375 18.41375 18.91625 18.7025 20 19 C20 19.99 20 20.98 20 22 C13.13079983 21.43924897 8.37031202 19.62656196 3.6875 14.4375 C1.39611879 9.76987162 0.69265553 5.1220054 0 0 Z " fill="#606A74" transform="translate(363,79)"/>
<path d="M0 0 C0.99 0 1.98 0 3 0 C3.19335938 0.66386719 3.38671875 1.32773438 3.5859375 2.01171875 C4.37283435 4.6801561 5.18528238 7.33994697 6 10 C6.28875 10.99 6.5775 11.98 6.875 13 C8.46061261 15.81886686 9.92509777 16.11169491 13 17 C14.258125 17.37125 15.51625 17.7425 16.8125 18.125 C17.864375 18.41375 18.91625 18.7025 20 19 C20 19.99 20 20.98 20 22 C13.13079983 21.43924897 8.37031202 19.62656196 3.6875 14.4375 C1.39611879 9.76987162 0.69265553 5.1220054 0 0 Z " fill="#606A74" transform="translate(305,79)"/>
<path d="M0 0 C0.66 0 1.32 0 2 0 C2.56001591 5.60015908 1.08063324 9.43373593 -2 14 C-6.46550211 19.14805295 -11.49428758 21.31825121 -18 23 C-18 22.34 -18 21.68 -18 21 C-18.66 20.67 -19.32 20.34 -20 20 C-19.41992188 19.84144531 -18.83984375 19.68289062 -18.2421875 19.51953125 C-11.50797264 17.50815684 -6.97402406 15.31354038 -3.25 9.0625 C-2.02989739 6.07324861 -0.95456972 3.08399449 0 0 Z " fill="#616B75" transform="translate(294,78)"/>
<path d="M0 0 C0.66 0 1.32 0 2 0 C2.56001591 5.60015908 1.08063324 9.43373593 -2 14 C-6.46550211 19.14805295 -11.49428758 21.31825121 -18 23 C-18 22.34 -18 21.68 -18 21 C-18.66 20.67 -19.32 20.34 -20 20 C-19.41992188 19.84144531 -18.83984375 19.68289062 -18.2421875 19.51953125 C-11.50797264 17.50815684 -6.97402406 15.31354038 -3.25 9.0625 C-2.02989739 6.07324861 -0.95456972 3.08399449 0 0 Z " fill="#616B75" transform="translate(82,78)"/>
<path d="M0 0 C0 0.66 0 1.32 0 2 C-1.01707031 2.02126953 -1.01707031 2.02126953 -2.0546875 2.04296875 C-9.2046606 2.40938011 -15.18067651 3.6431243 -21 8 C-23.36964156 10.82370461 -25.26060677 13.75454678 -27 17 C-27.66 15.68 -28.32 14.36 -29 13 C-21.91433269 1.39217916 -13.16052219 -0.92825 0 0 Z " fill="#5B6670" transform="translate(181,37)"/>
<path d="M0 0 C3.81921416 4.14168079 3.69368316 8.16850132 3.48046875 13.60546875 C2.49046875 13.27546875 1.50046875 12.94546875 0.48046875 12.60546875 C-0.01236066 10.63415111 -0.49957651 8.66087649 -0.93359375 6.67578125 C-1.80030263 3.61340987 -3.25552245 1.80479158 -5.51953125 -0.39453125 C-9.59200194 -2.43806493 -13.31394452 -2.76618059 -17.83203125 -3.01953125 C-19.71341797 -3.13167969 -19.71341797 -3.13167969 -21.6328125 -3.24609375 C-22.58542969 -3.29507813 -23.53804688 -3.3440625 -24.51953125 -3.39453125 C-24.51953125 -3.72453125 -24.51953125 -4.05453125 -24.51953125 -4.39453125 C-22.4787412 -4.59134335 -20.43683118 -4.77655956 -18.39453125 -4.95703125 C-17.25757813 -5.06144531 -16.120625 -5.16585937 -14.94921875 -5.2734375 C-8.33820876 -5.50685585 -4.77375117 -4.43653254 0 0 Z " fill="#646E78" transform="translate(405.51953125,43.39453125)"/>
<path d="M0 0 C3.81921416 4.14168079 3.69368316 8.16850132 3.48046875 13.60546875 C2.49046875 13.27546875 1.50046875 12.94546875 0.48046875 12.60546875 C-0.01236066 10.63415111 -0.49957651 8.66087649 -0.93359375 6.67578125 C-1.80030263 3.61340987 -3.25552245 1.80479158 -5.51953125 -0.39453125 C-9.59200194 -2.43806493 -13.31394452 -2.76618059 -17.83203125 -3.01953125 C-19.71341797 -3.13167969 -19.71341797 -3.13167969 -21.6328125 -3.24609375 C-22.58542969 -3.29507813 -23.53804688 -3.3440625 -24.51953125 -3.39453125 C-24.51953125 -3.72453125 -24.51953125 -4.05453125 -24.51953125 -4.39453125 C-22.4787412 -4.59134335 -20.43683118 -4.77655956 -18.39453125 -4.95703125 C-17.25757813 -5.06144531 -16.120625 -5.16585937 -14.94921875 -5.2734375 C-8.33820876 -5.50685585 -4.77375117 -4.43653254 0 0 Z " fill="#646E78" transform="translate(347.51953125,43.39453125)"/>
<path d="M0 0 C6.84565141 1.5702299 12.34112539 3.52902798 17 9 C17.96070434 11.88211302 18.10581883 13.69850044 18.0625 16.6875 C18.05347656 17.49574219 18.04445313 18.30398437 18.03515625 19.13671875 C18.02355469 19.75160156 18.01195312 20.36648437 18 21 C15.46061155 18.79690894 14.64456788 17.36365691 14.125 14.0625 C13.44471608 11.11460303 13.04451294 10.05146809 11 7.6875 C6.86603939 5.36214716 2.57729557 4.17320974 -2 3 C-1.34 2.67 -0.68 2.34 0 2 C0 1.34 0 0.68 0 0 Z " fill="#5F6A74" transform="translate(393,68)"/>
<path d="M0 0 C6.84565141 1.5702299 12.34112539 3.52902798 17 9 C17.96070434 11.88211302 18.10581883 13.69850044 18.0625 16.6875 C18.05347656 17.49574219 18.04445313 18.30398437 18.03515625 19.13671875 C18.02355469 19.75160156 18.01195312 20.36648437 18 21 C15.46061155 18.79690894 14.64456788 17.36365691 14.125 14.0625 C13.44471608 11.11460303 13.04451294 10.05146809 11 7.6875 C6.86603939 5.36214716 2.57729557 4.17320974 -2 3 C-1.34 2.67 -0.68 2.34 0 2 C0 1.34 0 0.68 0 0 Z " fill="#5F6A74" transform="translate(335,68)"/>
<path d="M0 0 C2 3 2 3 3.3125 5.875 C6.37602333 11.54819135 10.18739005 14.40287641 16 17 C17.33333333 17.66666667 18.66666667 18.33333333 20 19 C19.34 19 18.68 19 18 19 C18 19.66 18 20.32 18 21 C11.08516757 19.35361133 6.17344864 16.89922605 2 11 C0.61181781 8.07524373 -0.47820299 5.20252913 -1 2 C-0.67 1.34 -0.34 0.68 0 0 Z " fill="#58636D" transform="translate(151,80)"/>
<path d="M0 0 C0.99 0 1.98 0 3 0 C5.42857143 8.42857143 5.42857143 8.42857143 4 13 C1.47519307 10.47519307 1.44261367 8.86176966 0.875 5.375 C0.70742188 4.37210937 0.53984375 3.36921875 0.3671875 2.3359375 C0.24601562 1.56507812 0.12484375 0.79421875 0 0 Z " fill="#5A656F" transform="translate(363,79)"/>
<path d="M0 0 C0.99 0 1.98 0 3 0 C5.42857143 8.42857143 5.42857143 8.42857143 4 13 C1.47519307 10.47519307 1.44261367 8.86176966 0.875 5.375 C0.70742188 4.37210937 0.53984375 3.36921875 0.3671875 2.3359375 C0.24601562 1.56507812 0.12484375 0.79421875 0 0 Z " fill="#5A656F" transform="translate(305,79)"/>
<path d="M0 0 C-0.33 0.99 -0.66 1.98 -1 3 C-9.42857143 4.28571429 -9.42857143 4.28571429 -14 3 C-14 2.34 -14 1.68 -14 1 C-4.58997722 -0.14806378 -4.58997722 -0.14806378 0 0 Z " fill="#505B66" transform="translate(183,98)"/>
<path d="M0 0 C4.29 0 8.58 0 13 0 C13 0.66 13 1.32 13 2 C12.25234375 2.06058594 11.5046875 2.12117188 10.734375 2.18359375 C9.74953125 2.26738281 8.7646875 2.35117187 7.75 2.4375 C6.77546875 2.51871094 5.8009375 2.59992187 4.796875 2.68359375 C2.43538247 2.95074584 0.28098935 3.35371968 -2 4 C-1.34 2.68 -0.68 1.36 0 0 Z " fill="#4F5B65" transform="translate(168,37)"/>
<path d="M0 0 C3.2578125 -0.29296875 3.2578125 -0.29296875 7.125 -0.1875 C9.04699219 -0.14689453 9.04699219 -0.14689453 11.0078125 -0.10546875 C11.99523437 -0.07066406 12.98265625 -0.03585938 14 0 C14 0.66 14 1.32 14 2 C6.08 2.495 6.08 2.495 -2 3 C-1.34 2.01 -0.68 1.02 0 0 Z " fill="#495560" transform="translate(380,37)"/>
<path d="M0 0 C3.2578125 -0.29296875 3.2578125 -0.29296875 7.125 -0.1875 C9.04699219 -0.14689453 9.04699219 -0.14689453 11.0078125 -0.10546875 C11.99523437 -0.07066406 12.98265625 -0.03585938 14 0 C14 0.66 14 1.32 14 2 C6.08 2.495 6.08 2.495 -2 3 C-1.34 2.01 -0.68 1.02 0 0 Z " fill="#495560" transform="translate(322,37)"/>
<path d="M0 0 C4.455 0.99 4.455 0.99 9 2 C8.01 2.99 7.02 3.98 6 5 C5.01 4.67 4.02 4.34 3 4 C0.94106379 3.77674186 -1.12233653 3.59294241 -3.1875 3.4375 C-4.81751953 3.31181641 -4.81751953 3.31181641 -6.48046875 3.18359375 C-7.31191406 3.12300781 -8.14335937 3.06242187 -9 3 C-9 2.67 -9 2.34 -9 2 C-4.545 1.505 -4.545 1.505 0 1 C0 0.67 0 0.34 0 0 Z " fill="#778088" transform="translate(274,37)"/>
<path d="M0 0 C4.455 0.99 4.455 0.99 9 2 C8.01 2.99 7.02 3.98 6 5 C5.01 4.67 4.02 4.34 3 4 C0.94106379 3.77674186 -1.12233653 3.59294241 -3.1875 3.4375 C-4.81751953 3.31181641 -4.81751953 3.31181641 -6.48046875 3.18359375 C-7.31191406 3.12300781 -8.14335938 3.06242187 -9 3 C-9 2.67 -9 2.34 -9 2 C-4.545 1.505 -4.545 1.505 0 1 C0 0.67 0 0.34 0 0 Z " fill="#778088" transform="translate(62,37)"/>
<path d="M0 0 C3.3 0.99 6.6 1.98 10 3 C9.01 4.485 9.01 4.485 8 6 C4.7 5.01 1.4 4.02 -2 3 C-1.34 2.67 -0.68 2.34 0 2 C0 1.34 0 0.68 0 0 Z " fill="#69737C" transform="translate(393,68)"/>
<path d="M0 0 C3.3 0.99 6.6 1.98 10 3 C9.01 4.485 9.01 4.485 8 6 C4.7 5.01 1.4 4.02 -2 3 C-1.34 2.67 -0.68 2.34 0 2 C0 1.34 0 0.68 0 0 Z " fill="#69737C" transform="translate(335,68)"/>
<path d="M0 0 C1.31534494 3.65857532 0.65468309 6.08026481 -0.4375 9.75 C-0.86869141 11.22726563 -0.86869141 11.22726563 -1.30859375 12.734375 C-1.53675781 13.48203125 -1.76492187 14.2296875 -2 15 C-2.33 15 -2.66 15 -3 15 C-3.55353075 4.44191344 -3.55353075 4.44191344 0 0 Z " fill="#4D5964" transform="translate(247,53)"/>
<path d="M0 0 C1.31534494 3.65857532 0.65468309 6.08026481 -0.4375 9.75 C-0.86869141 11.22726563 -0.86869141 11.22726563 -1.30859375 12.734375 C-1.53675781 13.48203125 -1.76492187 14.2296875 -2 15 C-2.33 15 -2.66 15 -3 15 C-3.55353075 4.44191344 -3.55353075 4.44191344 0 0 Z " fill="#4D5964" transform="translate(35,53)"/>
<path d="M0 0 C1.94518337 2.91777506 3.46061249 5.8542951 5 9 C5.33 9.66 5.66 10.32 6 11 C5.34 11.66 4.68 12.32 4 13 C1.39203496 9.3825001 -0.62404224 6.51149317 -1 2 C-0.67 1.34 -0.34 0.68 0 0 Z " fill="#66717A" transform="translate(151,80)"/>
<path d="M0 0 C0.33 0.66 0.66 1.32 1 2 C0.0625 4.625 0.0625 4.625 -1 7 C-2.65 7 -4.3 7 -6 7 C-5.8125 4.625 -5.8125 4.625 -5 2 C-2.4375 0.6875 -2.4375 0.6875 0 0 Z " fill="#4C5863" transform="translate(117,64)"/>
<path d="M0 0 C0.99 0.33 1.98 0.66 3 1 C0.525 4.465 0.525 4.465 -2 8 C-2.99 7.34 -3.98 6.68 -5 6 C-3.35 4.02 -1.7 2.04 0 0 Z " fill="#67717A" transform="translate(100,84)"/>
<path d="M0 0 C3.63 0 7.26 0 11 0 C11 0.66 11 1.32 11 2 C3.57142857 3.28571429 3.57142857 3.28571429 0 2 C0 1.34 0 0.68 0 0 Z " fill="#48545F" transform="translate(265,99)"/>
<path d="M0 0 C3.63 0 7.26 0 11 0 C11 0.66 11 1.32 11 2 C3.57142857 3.28571429 3.57142857 3.28571429 0 2 C0 1.34 0 0.68 0 0 Z " fill="#48545F" transform="translate(53,99)"/>
<path d="M0 0 C3.96 0.99 3.96 0.99 8 2 C8 2.66 8 3.32 8 4 C4.7 3.67 1.4 3.34 -2 3 C-1.34 2.67 -0.68 2.34 0 2 C0 1.34 0 0.68 0 0 Z " fill="#5D6872" transform="translate(385,66)"/>
<path d="M0 0 C3.96 0.99 3.96 0.99 8 2 C8 2.66 8 3.32 8 4 C4.7 3.67 1.4 3.34 -2 3 C-1.34 2.67 -0.68 2.34 0 2 C0 1.34 0 0.68 0 0 Z " fill="#5D6872" transform="translate(327,66)"/>
<path d="M0 0 C0.99 0.33 1.98 0.66 3 1 C3 3.97 3 6.94 3 10 C1.68 9.67 0.36 9.34 -1 9 C-0.34 9 0.32 9 1 9 C0.67 6.03 0.34 3.06 0 0 Z " fill="#4E5A64" transform="translate(294,59)"/>
<path d="M0 0 C0.99 0.33 1.98 0.66 3 1 C3 3.97 3 6.94 3 10 C1.68 9.67 0.36 9.34 -1 9 C-0.34 9 0.32 9 1 9 C0.67 6.03 0.34 3.06 0 0 Z " fill="#4E5A64" transform="translate(82,59)"/>
<path d="M0 0 C0.66 0 1.32 0 2 0 C3.25664978 2.90600261 4 4.79604584 4 8 C3.01 8.33 2.02 8.66 1 9 C0.67 6.03 0.34 3.06 0 0 Z " fill="#626C76" transform="translate(292,51)"/>
<path d="M0 0 C0.66 0 1.32 0 2 0 C3.25664978 2.90600261 4 4.79604584 4 8 C3.01 8.33 2.02 8.66 1 9 C0.67 6.03 0.34 3.06 0 0 Z " fill="#626C76" transform="translate(80,51)"/>
<path d="M0 0 C0.66 0.33 1.32 0.66 2 1 C0.35 3.64 -1.3 6.28 -3 9 C-3.66 7.68 -4.32 6.36 -5 5 C-3.35 3.35 -1.7 1.7 0 0 Z " fill="#5E6872" transform="translate(222,44)"/>
<path d="M0 0 C1.5 1.375 1.5 1.375 3 3 C3 3.66 3 4.32 3 5 C3.66 5.33 4.32 5.66 5 6 C4.01 6.66 3.02 7.32 2 8 C0.4375 6.8125 0.4375 6.8125 -1 5 C-0.6875 2.3125 -0.6875 2.3125 0 0 Z " fill="#6C767F" transform="translate(368,89)"/>
<path d="M0 0 C1.5 1.375 1.5 1.375 3 3 C3 3.66 3 4.32 3 5 C3.66 5.33 4.32 5.66 5 6 C4.01 6.66 3.02 7.32 2 8 C0.4375 6.8125 0.4375 6.8125 -1 5 C-0.6875 2.3125 -0.6875 2.3125 0 0 Z " fill="#6C767F" transform="translate(310,89)"/>
<path d="M0 0 C0.99 0.33 1.98 0.66 3 1 C3 1.66 3 2.32 3 3 C-1.625 5.125 -1.625 5.125 -5 4 C-3.36587557 2.29159719 -2.13093906 1.06546953 0 0 Z " fill="#5D6771" transform="translate(261,38)"/>
<path d="M0 0 C0.99 0.33 1.98 0.66 3 1 C3 1.66 3 2.32 3 3 C-1.625 5.125 -1.625 5.125 -5 4 C-3.36587557 2.29159719 -2.13093906 1.06546953 0 0 Z " fill="#5D6771" transform="translate(49,38)"/>
<path d="M0 0 C0.99 0 1.98 0 3 0 C2.3125 2.4375 2.3125 2.4375 1 5 C-1.625 5.8125 -1.625 5.8125 -4 6 C-2.1875 3 -2.1875 3 0 0 Z " fill="#6C767F" transform="translate(135,38)"/>
<path d="M0 0 C0.66 0 1.32 0 2 0 C0.75023244 3.65316671 0.32901247 4.78065836 -3 7 C-3.33 6.34 -3.66 5.68 -4 5 C-2.71937515 3.2925002 -1.38232443 1.62626404 0 0 Z " fill="#54606A" transform="translate(105,78)"/>
<path d="M0 0 C2.31 0.33 4.62 0.66 7 1 C6.01 1.495 6.01 1.495 5 2 C5 2.66 5 3.32 5 4 C3.35 3.67 1.7 3.34 0 3 C0 2.01 0 1.02 0 0 Z " fill="#69737D" transform="translate(164,97)"/>
<path d="M0 0 C1.9375 0.8125 1.9375 0.8125 4 2 C4.33 2.99 4.66 3.98 5 5 C4.01 5.33 3.02 5.66 2 6 C1.01 4.35 0.02 2.7 -1 1 C-0.67 0.67 -0.34 0.34 0 0 Z " fill="#626D76" transform="translate(116,70)"/>
<path d="M0 0 C0.99 0.33 1.98 0.66 3 1 C2.01 2.98 1.02 4.96 0 7 C-0.66 5.68 -1.32 4.36 -2 3 C-1.34 2.01 -0.68 1.02 0 0 Z " fill="#646E77" transform="translate(154,47)"/>
</svg>
